<?xml version="1.0" encoding="UTF-8"?>
<svg width="1200px" height="800px" viewBox="0 0 1200 800" version="1.1" xmlns="http://www.w3.org/2000/svg" xmlns:xlink="http://www.w3.org/1999/xlink">
    <!-- Generator: Sketch 51.3 (57544) - http://www.bohemiancoding.com/sketch -->
    <title>ic_main_bcn_slash</title>
    <desc>Created with Sketch.</desc>
    <defs></defs>
    <g id="ic_main_bcn_slash" stroke="none" stroke-width="1" fill="none" fill-rule="evenodd">
        <g id="SlashMobility3" transform="translate(123.500000, 284.000000)" fill-rule="nonzero">
            <g id="layer101" fill="#383838">
                <path d="M893.38,225.188 C894.824,221.92 898.396,213.636 901.436,206.72 L906.908,194.18 L898.016,173.66 C893.152,162.336 885.628,145.388 881.22,135.888 C876.888,126.388 873.316,118.484 873.316,118.256 C873.316,118.028 875.824,117.8 878.864,117.8 L884.336,117.8 L892.62,135.888 C897.18,145.768 903.488,159.752 906.604,166.82 C909.72,173.964 912.456,179.968 912.76,180.272 C912.988,180.576 919.372,166.896 926.82,149.872 C934.268,132.848 940.652,118.636 940.956,118.332 C941.26,118.028 943.92,117.8 946.808,117.952 L952.128,118.18 L945.364,133 C941.64,141.132 938.068,149.188 937.46,150.86 C936.928,152.532 928.796,171.152 919.448,192.28 L902.424,230.66 L896.648,230.888 L890.796,231.116 L893.38,225.188 Z" id="Shape"></path>
                <path d="M550.316,205.732 C534.584,200.488 521.512,187.036 518.092,172.672 C514.9,158.916 515.128,152.228 519.308,141.74 C522.576,133.38 527.364,126.692 533.672,121.6 L536.788,119.168 L540.968,123.348 C543.248,125.628 546.136,127.984 547.428,128.516 C549.328,129.276 549.556,129.732 549.176,131.404 C548.796,133.228 546.972,135.28 543.628,137.712 C541.5,139.232 536.56,147.668 536.104,150.556 C535.952,152 535.496,154.584 535.192,156.332 C534.584,159.372 535.268,166.288 536.484,169.252 C537.776,172.672 544.084,180.044 548.34,183.236 C561.488,192.888 579.652,189.088 588.848,174.648 C593.18,167.96 594.928,160.892 593.788,155.192 C593.256,152.836 592.8,150.176 592.648,149.264 C592.496,148.428 592.04,147.136 591.584,146.376 C591.052,145.388 591.812,142.424 594.7,134.368 L598.5,123.652 L601.388,126.996 C605.568,131.936 609.292,139.46 611.496,147.516 C613.776,156.18 613.852,159.752 611.8,169.708 C609.596,180.5 606.404,186.276 598.804,193.344 C592.268,199.424 586.72,202.768 578.284,205.656 C570.912,208.164 557.84,208.164 550.316,205.732 Z" id="Shape"></path>
                <path d="M26.296,202.54 C15.048,200.032 9.12,195.32 1.672,183.008 L0,180.196 L4.56,177.156 L9.044,174.04 L11.096,177.536 C15.352,184.832 22.192,190.456 28.956,192.28 C31.844,193.04 33.06,192.964 38.304,191.444 C46.512,189.088 49.628,185.972 51.376,178.372 C53.884,167.504 50.54,161.272 36.176,149.644 C22.724,138.776 13.148,129.884 10.792,126.236 C7.828,121.676 5.852,113.012 6.612,107.996 C7.372,103.056 10.108,97.204 13.148,94.164 C14.592,92.72 18.468,90.136 21.812,88.54 C27.436,85.728 28.272,85.576 34.276,85.576 C43.472,85.652 47.272,87.4 56.088,95.532 C59.964,99.104 63.156,102.448 63.156,102.98 C63.156,103.512 61.332,105.488 59.052,107.464 L54.948,110.96 L49.4,105.26 C44.84,100.624 42.94,99.256 39.292,97.964 C35.416,96.596 34.276,96.52 31.312,97.28 C21.584,99.712 16.492,106.324 18.316,114.304 C19.456,119.32 25.384,126.54 32.908,131.86 C40.052,137.028 51.68,146.984 55.708,151.468 C59.964,156.18 63.688,163.172 64.676,168.416 C65.512,172.748 65.436,173.66 63.536,180.196 C61.028,189.088 60.344,190.304 55.784,194.636 C50.54,199.652 47.652,201.096 40.432,202.464 C33.06,203.908 32.3,203.908 26.296,202.54 Z" id="Shape"></path>
                <path d="M144.476,201.096 C135.66,198.056 131.024,194.788 124.64,186.884 C114.304,174.192 112.328,154.052 119.928,138.776 C122.36,133.836 132.392,123.576 137.104,121.144 C144.78,117.192 149.948,116.128 159.98,116.432 C172.368,116.812 175.636,118.104 184.3,126.236 L190.836,132.392 L190.836,125.096 L190.836,117.8 L196.156,117.8 L201.476,117.8 L201.476,159.22 L201.476,200.64 L196.156,200.64 L190.836,200.64 L190.836,194.028 L190.836,187.492 L186.504,191.672 C181.412,196.46 176.852,199.272 170.696,201.4 C164.312,203.604 151.316,203.452 144.476,201.096 Z M172.52,190.38 C179.512,187.036 186.276,180.424 189.088,174.268 C190.836,170.392 191.14,168.872 191.14,161.5 C191.216,151.772 190.836,148.808 188.936,145.16 C185.972,139.308 182.932,135.812 177.916,132.544 C162.716,122.36 143.64,125.172 133.076,139.004 C127.756,145.92 125.096,156.484 126.616,164.54 C127.604,169.936 129.656,175.636 132.012,179.36 C133.988,182.628 140.98,188.024 146.756,190.912 C150.48,192.66 151.848,192.964 158.916,192.964 C166.592,193.04 167.2,192.888 172.52,190.38 Z" id="Shape"></path>
                <path d="M237.956,202.464 C234.688,201.856 228.532,199.728 226.556,198.512 C225.492,197.828 223.212,196.004 221.464,194.332 L218.272,191.292 L221.768,187.188 L225.264,183.084 L229.14,186.884 C232.18,189.848 234.004,190.912 237.652,191.976 C241.908,193.116 242.592,193.116 246.468,191.976 C248.748,191.368 251.484,189.924 252.624,188.86 C256.804,184.604 258.552,177.308 256.348,173.204 C255.816,172.216 250.192,167.96 243.808,163.78 C230.128,154.736 227.012,152.076 224.656,147.516 C222.3,142.728 221.768,138.624 222.756,133 C223.744,127.68 226.024,123.728 229.9,120.612 C233.168,118.028 235.068,117.344 241.224,116.28 C249.584,114.76 260.072,118.484 266.076,124.944 L267.9,126.996 L264.404,130.492 L260.908,133.912 L256.804,130.948 C252.244,127.528 245.176,125.096 241.984,125.856 C237.804,126.844 234.384,129.124 233.168,131.632 C230.964,136.42 230.964,137.484 232.636,140.98 C234.46,144.704 241.756,150.48 252.396,156.56 C262.2,162.184 266.152,166.896 267.216,174.496 C268.508,184.376 263.644,195.092 255.664,199.88 C251.788,202.236 250.572,202.54 245.556,202.616 C242.44,202.692 239.02,202.616 237.956,202.464 Z" id="Shape"></path>
                <path d="M657.856,200.716 C651.852,198.132 647.064,194.712 642.352,189.848 L638.476,185.82 L638.476,193.268 L638.476,200.64 L633.156,200.64 L627.836,200.64 L627.836,142.88 L627.836,85.12 L633.156,85.12 L638.476,85.12 L638.476,108.3 C638.476,121.068 638.78,131.48 639.084,131.48 C639.388,131.48 640.908,130.264 642.352,128.744 C646.532,124.412 653.828,119.7 658.996,117.876 C662.644,116.66 665.684,116.28 671.384,116.28 C684.912,116.28 693.652,119.776 701.936,128.516 C707.788,134.748 710.904,139.916 713.032,147.06 C714.4,151.62 714.628,153.672 714.248,161.12 C713.64,174.344 710.828,181.108 702.164,190.456 C694.032,199.12 684.38,202.996 670.852,202.844 C663.48,202.768 661.808,202.54 657.856,200.716 Z M683.772,190.228 C690.384,187.644 696.312,181.792 700.416,174.04 C703.38,168.416 703.456,168.188 703.456,160.36 C703.456,150.784 703.228,149.796 699.58,142.88 C696.084,136.116 690.232,130.796 683.544,128.06 C679.516,126.464 677.54,126.16 670.928,126.16 C661.96,126.16 657.476,127.528 651.396,132.24 C644.556,137.408 640.756,144.02 638.932,153.9 C637.26,163.324 640.3,175.256 645.848,181.26 C649.876,185.516 658.16,190.304 663.1,191.216 C671.612,192.812 678.148,192.508 683.772,190.228 Z" id="Shape"></path>
                <polygon id="Shape" points="85.196 142.88 85.196 85.12 90.896 85.12 96.596 85.12 96.596 142.88 96.596 200.64 90.896 200.64 85.196 200.64"></polygon>
                <path d="M286.596,142.88 L286.596,85.12 L291.916,85.12 L297.236,85.12 L297.236,108.452 L297.236,131.784 L300.884,128.364 C310.612,119.016 317.3,116.128 329.156,116.052 C336.452,115.976 337.516,116.204 341.24,118.104 C347.168,121.144 352.336,125.4 353.856,128.44 C354.616,129.884 356.06,133.532 357.124,136.42 C358.948,141.664 359.024,142.12 359.328,171.228 L359.708,200.64 L354.312,200.64 L348.916,200.64 L348.916,179.968 C348.916,148.732 347.472,136.192 343.292,131.632 C341.088,129.124 335.54,126.464 331.36,125.856 C319.58,124.108 305.976,131.632 301.036,142.652 C299.212,146.604 298.756,148.96 298.072,158.384 C297.616,164.388 297.236,176.396 297.236,184.984 L297.236,200.64 L291.916,200.64 L286.596,200.64 L286.596,142.88 Z" id="Shape"></path>
                <path d="M379.316,200.488 C379.468,197.752 393.376,99.712 394.896,90.668 C395.124,89.3 395.732,88.16 396.264,88.16 C397.176,88.16 427.956,147.972 427.956,149.72 C427.956,150.176 431.452,157.32 435.708,165.528 L443.46,180.5 L450.604,165.68 C454.556,157.548 457.824,150.328 457.976,149.72 C458.128,149.112 464.892,134.976 473.024,118.408 C487.692,88.54 489.668,85.348 490.656,89.832 C491.34,93.024 498.712,144.932 499.092,149.492 C499.32,151.924 500.992,164.236 502.892,176.928 C504.716,189.544 506.236,200.108 506.236,200.26 C506.236,200.488 503.728,200.64 500.612,200.64 L495.064,200.64 L494.608,197.828 C494.38,196.232 492.1,179.056 489.516,159.6 C487.008,140.144 484.728,123.424 484.5,122.436 C484.196,120.916 482.676,123.196 476.9,134.444 C472.872,142.12 469.528,148.96 469.376,149.796 C468.844,152.456 443.764,200.64 442.928,200.64 C442.396,200.64 432.82,182.4 421.496,160.056 C410.248,137.712 400.9,119.548 400.748,119.624 C400.672,119.776 400.064,123.88 399.456,128.896 C396.72,150.176 390.64,195.928 390.26,198.208 L389.804,200.64 L384.56,200.64 C381.672,200.64 379.316,200.564 379.316,200.488 Z" id="Shape"></path>
                <polygon id="Shape" points="732.716 159.22 732.716 117.8 738.036 117.8 743.356 117.8 743.356 159.22 743.356 200.64 738.036 200.64 732.716 200.64"></polygon>
                <polygon id="Shape" points="763.876 142.88 763.876 85.12 769.196 85.12 774.516 85.12 774.516 142.88 774.516 200.64 769.196 200.64 763.876 200.64"></polygon>
                <polygon id="Shape" points="795.796 159.22 795.796 117.8 801.116 117.8 806.436 117.8 806.436 159.22 806.436 200.64 801.116 200.64 795.796 200.64"></polygon>
                <polygon id="Shape" points="837.596 163.78 837.596 126.92 830.376 126.92 823.156 126.92 823.156 122.36 823.156 117.8 830.376 117.8 837.596 117.8 837.596 102.22 837.596 86.64 843.296 86.64 848.996 86.64 848.996 102.22 848.996 117.8 857.356 117.8 865.716 117.8 865.716 122.36 865.716 126.92 857.356 126.92 848.996 126.92 848.996 163.78 848.996 200.64 843.296 200.64 837.596 200.64"></polygon>
                <path d="M556.32,162.488 C552.14,157.928 551.456,155.344 552.9,149.948 C553.508,147.516 560.196,129.124 567.644,109.06 L581.324,72.58 L577.98,71.516 C575.928,70.832 574.332,70.68 573.952,71.136 C573.496,71.592 559.968,108.376 556.016,119.852 C555.484,121.372 549.784,117.724 547.276,114.304 C546.06,112.632 544.692,109.744 544.236,107.844 C543.4,104.5 543.552,103.892 550.544,84.74 L557.764,64.98 L554.724,64.296 C552.976,63.916 551.532,63.916 551.152,64.296 C550.696,64.828 543.096,85.044 535.724,105.488 L535.116,107.236 L531.772,104.956 C529.948,103.664 527.592,101.156 526.452,99.332 C522.88,93.1 522.956,91.808 529.34,73.568 L534.964,57.152 L532.304,56.62 C530.784,56.392 529.34,56.392 529.036,56.772 C528.732,57.076 525.844,65.056 522.576,74.48 C519.308,83.904 516.42,91.808 516.192,92.112 C515.204,93.252 509.58,89.072 507.224,85.5 C502.588,78.508 502.512,78.812 520.448,36.784 L536.256,0 L582.008,0 L627.684,0 L630.42,3.648 C634.752,9.576 637.488,18.164 638.476,29.032 C639.996,44.84 638.172,58.14 633.004,70.148 C630.192,76.76 629.28,78.128 624.112,83.068 C620.692,86.336 616.132,89.68 612.94,91.428 C609.9,92.948 607.316,94.24 607.088,94.24 C606.632,94.24 609.672,84.968 614.84,70.832 C616.588,66.044 617.956,62.092 617.956,61.864 C617.956,61.104 611.648,58.444 611.116,59.052 C610.812,59.356 606.86,69.768 602.376,82.08 C597.892,94.392 589.608,117.192 583.984,132.62 C578.36,148.124 572.888,161.88 571.824,163.248 C570.076,165.604 569.772,165.68 564.604,165.68 C559.284,165.68 559.284,165.68 556.32,162.488 Z" id="Shape"></path>
                <path d="M734.616,99.864 C727.548,96.292 727.852,88.008 735.224,84.664 C737.884,83.448 738.188,83.448 741.152,84.74 C745.028,86.488 747.156,89.224 747.156,92.264 C747.156,95.38 745.484,97.736 741.836,99.56 C738.34,101.308 737.656,101.384 734.616,99.864 Z" id="Shape"></path>
                <path d="M797.696,99.864 C790.704,96.292 790.932,88.008 798.228,84.664 C800.66,83.6 801.42,83.524 803.396,84.36 C808.336,86.412 809.476,87.932 809.476,92.264 C809.476,96.596 808.792,97.584 804.384,99.864 C801.496,101.308 800.66,101.308 797.696,99.864 Z" id="Shape"></path>
            </g>
            <g id="layer102" transform="translate(515.888000, 119.168000)" fill="#747474">
                <path d="M34.428,86.564 C18.696,81.32 5.624,67.868 2.204,53.504 C-0.988,39.748 -0.76,33.06 3.42,22.572 C6.688,14.212 11.476,7.524 17.784,2.432 L20.9,0 L25.08,4.18 C27.36,6.46 30.248,8.816 31.54,9.348 C33.44,10.108 33.668,10.564 33.288,12.236 C32.908,14.06 31.084,16.112 27.74,18.544 C25.612,20.064 20.672,28.5 20.216,31.388 C20.064,32.832 19.608,35.416 19.304,37.164 C18.696,40.204 19.38,47.12 20.596,50.084 C21.888,53.504 28.196,60.876 32.452,64.068 C45.6,73.72 63.764,69.92 72.96,55.48 C77.292,48.792 79.04,41.724 77.9,36.024 C77.368,33.668 76.912,31.008 76.76,30.096 C76.608,29.26 76.152,27.968 75.696,27.208 C75.164,26.22 75.924,23.256 78.812,15.2 L82.612,4.484 L85.5,7.828 C89.68,12.768 93.404,20.292 95.608,28.348 C97.888,37.012 97.964,40.584 95.912,50.54 C93.708,61.332 90.516,67.108 82.916,74.176 C76.38,80.256 70.832,83.6 62.396,86.488 C55.024,88.996 41.952,88.996 34.428,86.564 Z" id="Shape"></path>
            </g>
        </g>
    </g>
</svg>